# xmcd CD database file
#
# Track frame offsets:
#	150
#	48778
#	64574
#	97802
#	152948
#	171504
#	193338
#	217938
#	264340
#	311600
#
# Disc length: 4664 seconds
#
# Revision: 0
# Processed by: cddbd v1.4PL0 Copyright (c) Steve Scherf et al.
# Submitted via: CDex 1.51
#
DISCID=8412360a
DTITLE=Blue Note - 1939-1999 - 60 Ans De Jazz -- [CD2]
DYEAR=1900
DGENRE=Jazz
TTITLE0=John Coltrane - Blue Train
TTITLE1=Miles Davis - Enigma
TTITLE2=Horace Silver - Song For My Father
TTITLE3=Eric Dolphy - Out To Lunch
TTITLE4=Clifford Brown - Wail Bait
TTITLE5=Bud Powell - Un Poco Loco
TTITLE6=Dexter Gordon - I Guess I'll Hang My
TTITLE7=Lee Morgan - The Sidewinder
TTITLE8=Joe Henderson - In and Out
TTITLE9=Wayne Shorter - Juju
EXTD=
EXTT0=
EXTT1=
EXTT2=
EXTT3=
EXTT4=
EXTT5=
EXTT6=
EXTT7=
EXTT8=
EXTT9=
PLAYORDER=
